<?xml version="1.0"?><svg width="800" height="800" xmlns="http://www.w3.org/2000/svg">
 <title>Lightning Bolt</title>

 <g>
  <title>Layer 1</title>
  <path fill="#ff9d00" fill-rule="evenodd" stroke="#191919" stroke-width="0" id="path4828" d="m472.068542,-12.903879l-302.651489,293.798319l163.138367,5.42804l-258.84491,245.117218l109.63501,1.948608l-181.662659,191.231628l438.948608,-233.261475l-163.395935,1.642212l330.746643,-251.655212l-178.907227,-0.419861l293.950684,-261.672438l-250.957092,7.84296z"/>
  <path d="m128,565c6.531921,-7.620728 21.956009,-15.807129 35.925537,-45.724182c5.684814,-12.174591 12.390808,-23.084229 19.595734,-35.563202c2.991669,-5.181702 11.993484,-15.922485 52.255325,-53.344818c44.560471,-41.417725 56.086594,-50.430481 58.787216,-53.344818c4.270081,-4.607971 6.531921,-7.620697 13.063843,-12.701141c3.265961,-2.540253 6.780548,-1.568115 9.797882,-2.540253c8.534363,-2.749542 21.527222,-3.090546 39.191467,-10.160919c4.106873,-1.643829 9.797882,-2.540222 13.063843,-2.540222c3.265961,0 6.531921,0 9.797882,0c3.26593,0 6.531891,0 13.063812,0c3.265961,0 9.797882,0 13.063843,0l13.063812,0l9.797882,-2.540222l6.531921,-2.540222" id="svg_1" stroke-width="0" stroke="#191919" fill="none"/>
 </g>
</svg>